<svg
    xmlns="http://www.w3.org/2000/svg"
    width="500"
    height="500"
    viewBox="0 0 500 500"
>

    <!-- Hintergrund bleibt transparent -->


    <!-- äußerer Schatten -->
    <circle
        cx="250"
        cy="250"
        r="205"
        fill="#e8e8e8"
    />


    <g id="disc" transform="rotate(225 250 250)">

    <!-- äußerer Rand -->
    <circle
        cx="250"
        cy="250"
        r="195"
        fill="#f7f7f7"
        stroke="#1f1f1f"
        stroke-width="6"
    />



    <!-- Gradstriche am Rand: lange Striche bei 0/45/90..., kurze bei den restlichen 15°-Schritten -->
    <g stroke="#c8c8c8">
        <line x1="250.00" y1="55.00" x2="250.00" y2="72.00" stroke-width="3" />
        <line x1="300.47" y1="61.64" x2="297.88" y2="71.30" stroke-width="1.5" />
        <line x1="347.50" y1="81.13" x2="342.50" y2="89.79" stroke-width="1.5" />
        <line x1="387.89" y1="112.11" x2="375.87" y2="124.13" stroke-width="3" />
        <line x1="418.87" y1="152.50" x2="410.21" y2="157.50" stroke-width="1.5" />
        <line x1="438.36" y1="199.53" x2="428.70" y2="202.12" stroke-width="1.5" />
        <line x1="445.00" y1="250.00" x2="428.00" y2="250.00" stroke-width="3" />
        <line x1="438.36" y1="300.47" x2="428.70" y2="297.88" stroke-width="1.5" />
        <line x1="418.87" y1="347.50" x2="410.21" y2="342.50" stroke-width="1.5" />
        <line x1="387.89" y1="387.89" x2="375.87" y2="375.87" stroke-width="3" />
        <line x1="347.50" y1="418.87" x2="342.50" y2="410.21" stroke-width="1.5" />
        <line x1="300.47" y1="438.36" x2="297.88" y2="428.70" stroke-width="1.5" />
        <line x1="250.00" y1="445.00" x2="250.00" y2="428.00" stroke-width="3" />
        <line x1="199.53" y1="438.36" x2="202.12" y2="428.70" stroke-width="1.5" />
        <line x1="152.50" y1="418.87" x2="157.50" y2="410.21" stroke-width="1.5" />
        <line x1="112.11" y1="387.89" x2="124.13" y2="375.87" stroke-width="3" />
        <line x1="81.13" y1="347.50" x2="89.79" y2="342.50" stroke-width="1.5" />
        <line x1="61.64" y1="300.47" x2="71.30" y2="297.88" stroke-width="1.5" />
        <line x1="55.00" y1="250.00" x2="72.00" y2="250.00" stroke-width="3" />
        <line x1="61.64" y1="199.53" x2="71.30" y2="202.12" stroke-width="1.5" />
        <line x1="81.13" y1="152.50" x2="89.79" y2="157.50" stroke-width="1.5" />
        <line x1="112.11" y1="112.11" x2="124.13" y2="124.13" stroke-width="3" />
        <line x1="152.50" y1="81.13" x2="157.50" y2="89.79" stroke-width="1.5" />
        <line x1="199.53" y1="61.64" x2="202.12" y2="71.30" stroke-width="1.5" />
    </g>

    <!-- innerer Ring -->
    <circle
        cx="250"
        cy="250"
        r="165"
        fill="#ffffff"
        stroke="#b8b8b8"
        stroke-width="2"
    />


    <!-- Hauptachsen -->

    <line
        x1="250"
        y1="85"
        x2="250"
        y2="415"
        stroke="#d0d0d0"
        stroke-width="2"
    />

    <line
        x1="85"
        y1="250"
        x2="415"
        y2="250"
        stroke="#d0d0d0"
        stroke-width="2"
    />


    <!-- diagonale Achsen -->

    <line
        x1="133"
        y1="133"
        x2="367"
        y2="367"
        stroke="#e2e2e2"
        stroke-width="2"
    />

    <line
        x1="367"
        y1="133"
        x2="133"
        y2="367"
        stroke="#e2e2e2"
        stroke-width="2"
    />


    <!-- zentraler Kreis -->

    <circle
        cx="250"
        cy="250"
        r="72"
        fill="#f2f2f2"
        stroke="#1f1f1f"
        stroke-width="4"
    />


    <!-- Mittelpunkt -->

    <circle
        cx="250"
        cy="250"
        r="18"
        fill="#1f5fa8"
    />


    <!-- Hauptrichtungsanzeiger -->

    <path
        d="
            M 250 70
            L 232 110
            L 268 110
            Z
        "
        fill="#1f5fa8"
    />


    <!-- asymmetrische Markierungen -->

    <circle
        cx="345"
        cy="150"
        r="15"
        fill="#1f1f1f"
    />

    <circle
        cx="365"
        cy="300"
        r="11"
        fill="#1f5fa8"
    />

    <circle
        cx="155"
        cy="330"
        r="8"
        fill="#777777"
    />


    <!-- kleiner Balken -->

    <rect
        x="130"
        y="175"
        width="55"
        height="12"
        rx="3"
        fill="#1f1f1f"
    />


    <!-- Außenmarkierungen -->

    <g
        stroke="#555555"
        stroke-width="4"
    >

        <line x1="250" y1="55" x2="250" y2="75" />

        <line x1="445" y1="250" x2="425" y2="250" />

        <line x1="250" y1="445" x2="250" y2="425" />

        <line x1="55" y1="250" x2="75" y2="250" />

    </g>


    <!-- kleinere Markierungen -->

    <g
        stroke="#999999"
        stroke-width="3"
    >

        <line x1="388" y1="112" x2="374" y2="126" />

        <line x1="388" y1="388" x2="374" y2="374" />

        <line x1="112" y1="388" x2="126" y2="374" />

        <line x1="112" y1="112" x2="126" y2="126" />

    </g>

    </g>

</svg>